<svg width="25" height="24" viewBox="0 0 25 24" fill="none" xmlns="http://www.w3.org/2000/svg">
<path d="M21.5 11.9999C21.2348 11.9999 20.9804 12.1053 20.7929 12.2928C20.6054 12.4804 20.5 12.7347 20.5 12.9999V18.9999C20.5 19.2652 20.3946 19.5195 20.2071 19.707C20.0196 19.8946 19.7652 19.9999 19.5 19.9999H5.5C5.23478 19.9999 4.98043 19.8946 4.79289 19.707C4.60536 19.5195 4.5 19.2652 4.5 18.9999V4.99994C4.5 4.73472 4.60536 4.48037 4.79289 4.29283C4.98043 4.1053 5.23478 3.99994 5.5 3.99994H11.5C11.7652 3.99994 12.0196 3.89458 12.2071 3.70705C12.3946 3.51951 12.5 3.26516 12.5 2.99994C12.5 2.73472 12.3946 2.48037 12.2071 2.29283C12.0196 2.1053 11.7652 1.99994 11.5 1.99994H5.5C4.70435 1.99994 3.94129 2.31601 3.37868 2.87862C2.81607 3.44123 2.5 4.20429 2.5 4.99994V18.9999C2.5 19.7956 2.81607 20.5587 3.37868 21.1213C3.94129 21.6839 4.70435 21.9999 5.5 21.9999H19.5C20.2956 21.9999 21.0587 21.6839 21.6213 21.1213C22.1839 20.5587 22.5 19.7956 22.5 18.9999V12.9999C22.5 12.7347 22.3946 12.4804 22.2071 12.2928C22.0196 12.1053 21.7652 11.9999 21.5 11.9999ZM6.5 12.7599V16.9999C6.5 17.2652 6.60536 17.5195 6.79289 17.707C6.98043 17.8946 7.23478 17.9999 7.5 17.9999H11.74C11.8716 18.0007 12.0021 17.9755 12.1239 17.9257C12.2457 17.8759 12.3566 17.8026 12.45 17.7099L19.37 10.7799L22.21 7.99994C22.3037 7.90698 22.3781 7.79637 22.4289 7.67452C22.4797 7.55266 22.5058 7.42195 22.5058 7.28994C22.5058 7.15793 22.4797 7.02722 22.4289 6.90536C22.3781 6.7835 22.3037 6.6729 22.21 6.57994L17.97 2.28994C17.877 2.19621 17.7664 2.12182 17.6446 2.07105C17.5227 2.02028 17.392 1.99414 17.26 1.99414C17.128 1.99414 16.9973 2.02028 16.8754 2.07105C16.7536 2.12182 16.643 2.19621 16.55 2.28994L13.73 5.11994L6.79 12.0499C6.69732 12.1434 6.62399 12.2542 6.57423 12.376C6.52446 12.4979 6.49924 12.6283 6.5 12.7599ZM17.26 4.40994L20.09 7.23994L18.67 8.65994L15.84 5.82994L17.26 4.40994ZM8.5 13.1699L14.43 7.23994L17.26 10.0699L11.33 15.9999H8.5V13.1699Z" fill="#CDA000"/>
</svg>
