<svg width="54" height="56" viewBox="0 0 54 56" fill="none" xmlns="http://www.w3.org/2000/svg">
<rect width="54" height="56" rx="4" fill="#EDFAFF"/>
<path d="M35.5556 26.6667C34.2055 26.6667 33.1111 25.5723 33.1111 24.2222V18.6667C33.1111 17.2 32.0111 16 30.6667 16H23.3333C21.9889 16 20.8889 17.2 20.8889 18.6667V18.8889C20.8889 20.2389 19.7945 21.3333 18.4444 21.3333C17.1 21.3333 16 22.5333 16 24V37.3333C16 38.8 17.1 40 18.4444 40H24.5556C25.2278 40 25.7778 39.4 25.7778 38.6667V35.8889C25.7778 35.2139 26.325 34.6667 27 34.6667C27.675 34.6667 28.2222 35.2139 28.2222 35.8889V38.6667C28.2222 39.4 28.7722 40 29.4444 40H35.5556C36.9 40 38 38.8 38 37.3333V29.3333C38 27.8667 36.9 26.6667 35.5556 26.6667ZM20.8889 36.1111C20.8889 36.7861 20.3417 37.3333 19.6667 37.3333C18.9917 37.3333 18.4444 36.7861 18.4444 36.1111V35.8889C18.4444 35.2139 18.9917 34.6667 19.6667 34.6667C20.3417 34.6667 20.8889 35.2139 20.8889 35.8889V36.1111ZM20.8889 30.7778C20.8889 31.4528 20.3417 32 19.6667 32C18.9917 32 18.4444 31.4528 18.4444 30.7778V30.5556C18.4444 29.8805 18.9917 29.3333 19.6667 29.3333C20.3417 29.3333 20.8889 29.8805 20.8889 30.5556V30.7778ZM20.8889 25.4444C20.8889 26.1195 20.3417 26.6667 19.6667 26.6667C18.9917 26.6667 18.4444 26.1195 18.4444 25.4444V25.2222C18.4444 24.5472 18.9917 24 19.6667 24C20.3417 24 20.8889 24.5472 20.8889 25.2222V25.4444ZM25.7778 30.7778C25.7778 31.4528 25.2306 32 24.5556 32C23.8805 32 23.3333 31.4528 23.3333 30.7778V30.5556C23.3333 29.8805 23.8805 29.3333 24.5556 29.3333C25.2306 29.3333 25.7778 29.8805 25.7778 30.5556V30.7778ZM25.7778 25.4444C25.7778 26.1195 25.2306 26.6667 24.5556 26.6667C23.8805 26.6667 23.3333 26.1195 23.3333 25.4444V25.2222C23.3333 24.5472 23.8805 24 24.5556 24C25.2306 24 25.7778 24.5472 25.7778 25.2222V25.4444ZM25.7778 20.1111C25.7778 20.7861 25.2306 21.3333 24.5556 21.3333C23.8805 21.3333 23.3333 20.7861 23.3333 20.1111V19.8889C23.3333 19.2139 23.8805 18.6667 24.5556 18.6667C25.2306 18.6667 25.7778 19.2139 25.7778 19.8889V20.1111ZM30.6667 30.7778C30.6667 31.4528 30.1195 32 29.4444 32C28.7694 32 28.2222 31.4528 28.2222 30.7778V30.5556C28.2222 29.8805 28.7694 29.3333 29.4444 29.3333C30.1195 29.3333 30.6667 29.8805 30.6667 30.5556V30.7778ZM30.6667 25.4444C30.6667 26.1195 30.1195 26.6667 29.4444 26.6667C28.7694 26.6667 28.2222 26.1195 28.2222 25.4444V25.2222C28.2222 24.5472 28.7694 24 29.4444 24C30.1195 24 30.6667 24.5472 30.6667 25.2222V25.4444ZM30.6667 20.1111C30.6667 20.7861 30.1195 21.3333 29.4444 21.3333C28.7694 21.3333 28.2222 20.7861 28.2222 20.1111V19.8889C28.2222 19.2139 28.7694 18.6667 29.4444 18.6667C30.1195 18.6667 30.6667 19.2139 30.6667 19.8889V20.1111ZM35.5556 36.1111C35.5556 36.7861 35.0083 37.3333 34.3333 37.3333C33.6583 37.3333 33.1111 36.7861 33.1111 36.1111V35.8889C33.1111 35.2139 33.6583 34.6667 34.3333 34.6667C35.0083 34.6667 35.5556 35.2139 35.5556 35.8889V36.1111ZM35.5556 30.7778C35.5556 31.4528 35.0083 32 34.3333 32C33.6583 32 33.1111 31.4528 33.1111 30.7778V30.5556C33.1111 29.8805 33.6583 29.3333 34.3333 29.3333C35.0083 29.3333 35.5556 29.8805 35.5556 30.5556V30.7778Z" fill="#1890FF"/>
</svg>
