<svg width="40" height="48" viewBox="0 0 40 48" fill="none" xmlns="http://www.w3.org/2000/svg">
<g opacity="0.3">
<path opacity="0.3" d="M27.9328 9.84959C26.8395 9.84853 25.7912 9.4137 25.018 8.64056C24.2449 7.86742 23.8101 6.81912 23.809 5.72574V3.71692e-07H5.38379C4.67687 -0.000262324 3.97682 0.138723 3.32364 0.409065C2.67046 0.679407 2.07697 1.0758 1.57701 1.57557C1.07705 2.07534 0.680455 2.66871 0.409871 3.32179C0.139286 3.97486 -4.881e-08 4.67485 0 5.38176V37.8244C-4.881e-08 38.5313 0.139286 39.2313 0.409871 39.8844C0.680455 40.5375 1.07705 41.1309 1.57701 41.6306C2.07697 42.1304 2.67046 42.5268 3.32364 42.7971C3.97682 43.0674 4.67687 43.2065 5.38379 43.2062H27.5029C28.2096 43.2062 28.9094 43.067 29.5624 42.7966C30.2153 42.5261 30.8086 42.1297 31.3084 41.6299C31.8081 41.1302 32.2045 40.5369 32.475 39.8839C32.7454 39.231 32.8846 38.5312 32.8846 37.8244V9.84959H27.9328Z" fill="#0072FF"/>
</g>
<path d="M32.8847 9.84959H27.9329C26.8395 9.84853 25.7912 9.4137 25.0181 8.64056C24.245 7.86742 23.8101 6.81912 23.8091 5.72574V0L32.8847 9.84959Z" fill="#0072FF"/>
<path d="M26.119 16.7454H5.47185C5.27347 16.7454 5.08323 16.6666 4.94296 16.5263C4.80269 16.386 4.72388 16.1958 4.72388 15.9974C4.72362 15.899 4.74278 15.8015 4.78025 15.7106C4.81772 15.6196 4.87277 15.5369 4.94225 15.4672C5.01174 15.3975 5.09429 15.3423 5.18516 15.3046C5.27604 15.2668 5.37345 15.2474 5.47185 15.2474H26.119C26.3179 15.2474 26.5087 15.3265 26.6493 15.4671C26.79 15.6078 26.869 15.7985 26.869 15.9974C26.8685 16.196 26.7892 16.3862 26.6486 16.5264C26.508 16.6667 26.3176 16.7454 26.119 16.7454Z" fill="#0072FF"/>
<path d="M26.119 21.2191H5.47185C5.27347 21.2191 5.08323 21.1403 4.94296 21C4.80269 20.8598 4.72388 20.6695 4.72388 20.4712C4.72362 20.3728 4.74278 20.2753 4.78025 20.1843C4.81772 20.0933 4.87277 20.0106 4.94225 19.941C5.01174 19.8713 5.09429 19.816 5.18516 19.7783C5.27604 19.7406 5.37345 19.7212 5.47185 19.7212H26.119C26.3179 19.7212 26.5087 19.8002 26.6493 19.9408C26.79 20.0815 26.869 20.2723 26.869 20.4712C26.8685 20.6697 26.7892 20.8599 26.6486 21.0001C26.508 21.1404 26.3176 21.2191 26.119 21.2191Z" fill="#0072FF"/>
<path d="M26.119 25.6929H5.47185C5.37345 25.6929 5.27604 25.6735 5.18516 25.6358C5.09429 25.598 5.01174 25.5428 4.94225 25.4731C4.87277 25.4034 4.81772 25.3207 4.78025 25.2298C4.74278 25.1388 4.72362 25.0413 4.72388 24.9429C4.72388 24.7445 4.80269 24.5543 4.94296 24.414C5.08323 24.2738 5.27347 24.1949 5.47185 24.1949H26.119C26.3176 24.1949 26.508 24.2737 26.6486 24.4139C26.7892 24.5541 26.8685 24.7444 26.869 24.9429C26.869 25.1418 26.79 25.3326 26.6493 25.4732C26.5087 25.6139 26.3179 25.6929 26.119 25.6929Z" fill="#0072FF"/>
<path d="M17.9753 30.1668H5.47185C5.37345 30.1668 5.27604 30.1473 5.18516 30.1096C5.09429 30.0719 5.01174 30.0166 4.94225 29.9469C4.87277 29.8773 4.81772 29.7946 4.78025 29.7036C4.74278 29.6127 4.72362 29.5152 4.72388 29.4168C4.72388 29.2184 4.80269 29.0281 4.94296 28.8879C5.08323 28.7476 5.27347 28.6688 5.47185 28.6688H17.9753C18.1737 28.6688 18.364 28.7476 18.5042 28.8879C18.6445 29.0281 18.7233 29.2184 18.7233 29.4168C18.7236 29.5152 18.7044 29.6127 18.667 29.7036C18.6295 29.7946 18.5744 29.8773 18.5049 29.9469C18.4355 30.0166 18.3529 30.0719 18.262 30.1096C18.1712 30.1473 18.0737 30.1668 17.9753 30.1668Z" fill="#0072FF"/>
<path d="M36.7884 34.1205H11.7814C10.0076 34.1205 8.56958 35.5585 8.56958 37.3323V44.788C8.56958 46.5619 10.0076 47.9999 11.7814 47.9999H36.7884C38.5623 47.9999 40.0003 46.5619 40.0003 44.788V37.3323C40.0003 35.5585 38.5623 34.1205 36.7884 34.1205Z" fill="#0072FF"/>
<path d="M15.2434 42.6742V44.1281H13.7374V42.6742H15.2434Z" fill="white"/>
<path d="M21.0311 42.6783C20.7807 43.133 20.4024 43.5043 19.9431 43.7462C19.4262 44.0106 18.8516 44.1418 18.2712 44.1282H15.9993V38.1145H18.2712C18.852 38.1001 19.4275 38.2285 19.9471 38.4884C20.4046 38.726 20.7817 39.0933 21.0311 39.5444C21.2896 40.0245 21.4198 40.5632 21.4091 41.1084C21.4193 41.6554 21.2892 42.1959 21.0311 42.6783ZM19.4671 42.3763C19.6297 42.2094 19.7557 42.0105 19.8369 41.7921C19.9182 41.5738 19.953 41.3409 19.9391 41.1084C19.9531 40.8761 19.9183 40.6435 19.837 40.4254C19.7558 40.2074 19.6298 40.0088 19.4671 39.8424C19.1028 39.5229 18.6269 39.3604 18.1432 39.3904H17.4572V42.8263H18.1452C18.6278 42.8554 19.1025 42.6938 19.4671 42.3763Z" fill="white"/>
<path d="M26.6369 38.4165C27.0945 38.6763 27.4727 39.0559 27.7309 39.5144C28.0014 39.9987 28.1394 40.5457 28.1309 41.1003C28.14 41.6563 28.002 42.2048 27.7309 42.6903C27.4718 43.1505 27.0923 43.5315 26.6329 43.7922C26.1654 44.0592 25.6353 44.1973 25.097 44.1922C24.5586 44.197 24.0287 44.059 23.5611 43.7922C23.1018 43.532 22.7228 43.1509 22.4651 42.6903C22.1931 42.2052 22.055 41.6564 22.0651 41.1003C22.0547 40.5455 22.1928 39.998 22.4651 39.5144C22.7241 39.0558 23.1029 38.6763 23.5611 38.4165C24.0287 38.1498 24.5586 38.0117 25.097 38.0165C25.6366 38.0114 26.168 38.1494 26.6369 38.4165ZM23.957 39.8364C23.662 40.1893 23.5119 40.641 23.5371 41.1003C23.5118 41.5578 23.662 42.0077 23.957 42.3583C24.1007 42.5145 24.2769 42.6373 24.4731 42.7182C24.6694 42.799 24.881 42.8359 25.093 42.8263C25.3044 42.8353 25.5151 42.7982 25.7106 42.7173C25.9062 42.6365 26.0817 42.514 26.2249 42.3583C26.5214 42.0083 26.673 41.5584 26.6489 41.1003C26.6729 40.643 26.5229 40.1936 26.2289 39.8424C26.0853 39.6861 25.9092 39.5632 25.7129 39.4823C25.5166 39.4015 25.305 39.3646 25.093 39.3744C24.8815 39.3647 24.6704 39.401 24.4743 39.4807C24.2782 39.5605 24.1017 39.6818 23.957 39.8364Z" fill="white"/>
<path d="M33.5946 38.6584C34.1018 39.0711 34.4468 39.6498 34.5686 40.2923H33.0286C32.9247 40.026 32.7428 39.7974 32.5066 39.6363C32.2577 39.4743 31.9656 39.3913 31.6687 39.3983C31.4726 39.3921 31.2777 39.431 31.0991 39.5122C30.9205 39.5933 30.763 39.7145 30.6387 39.8663C30.3602 40.2225 30.2183 40.6666 30.2387 41.1183C30.2184 41.5681 30.3603 42.0103 30.6387 42.3642C30.7639 42.5145 30.9218 42.6342 31.1003 42.7143C31.2788 42.7943 31.4732 42.8326 31.6687 42.8262C31.9657 42.8341 32.2581 42.7511 32.5066 42.5882C32.7414 42.4301 32.9233 42.205 33.0286 41.9422H34.5686C34.4448 42.5828 34.1001 43.1597 33.5946 43.5722C33.0506 43.9875 32.3785 44.1997 31.6947 44.1722C31.1558 44.1835 30.6239 44.0495 30.1547 43.7841C29.7157 43.5289 29.3595 43.1526 29.1288 42.7002C28.8809 42.204 28.7573 41.6549 28.7688 41.1003C28.7575 40.5457 28.881 39.9966 29.1288 39.5003C29.3595 39.0479 29.7157 38.6716 30.1547 38.4164C30.6239 38.1511 31.1558 38.017 31.6947 38.0284C32.3821 38.0102 33.0542 38.2331 33.5946 38.6584Z" fill="white"/>
</svg>
