<svg width="54" height="56" viewBox="0 0 54 56" fill="none" xmlns="http://www.w3.org/2000/svg">
<rect width="54" height="56" rx="4" fill="#EDFAFF"/>
<path d="M32.3203 24.831L31.3082 27.0256H17.299L18.098 24.831H32.3203ZM30.4134 29.1562L29.38 31.3722H17.299L18.098 29.1562H30.4134ZM34.9197 19.0462L33.6626 21.7415C33.2649 21.4006 32.8317 21.0916 32.3629 20.8146C31.8942 20.5376 31.3899 20.3175 30.8501 20.1541C30.3104 19.9837 29.7315 19.8984 29.1136 19.8984C27.9773 19.8984 26.9652 20.2038 26.0774 20.8146C25.1896 21.4254 24.4901 22.3416 23.9787 23.5632C23.4744 24.7777 23.2223 26.2905 23.2223 28.1016C23.2223 29.9126 23.4744 31.4254 23.9787 32.6399C24.4901 33.8544 25.1896 34.767 26.0774 35.3778C26.9652 35.9815 27.9773 36.2834 29.1136 36.2834C29.7386 36.2834 30.321 36.2017 30.8608 36.0384C31.4077 35.875 31.9048 35.6619 32.3523 35.3991C32.8068 35.1293 33.2152 34.8452 33.5774 34.5469L34.8665 37.2315C34.1136 37.9134 33.2401 38.4283 32.2457 38.7763C31.2514 39.1243 30.2074 39.2983 29.1136 39.2983C27.331 39.2983 25.7507 38.8473 24.3729 37.9453C23.0021 37.0433 21.9261 35.7578 21.1449 34.0888C20.3636 32.4126 19.973 30.4169 19.973 28.1016C19.973 25.7791 20.3636 23.7798 21.1449 22.1037C21.9261 20.4276 23.0021 19.1385 24.3729 18.2365C25.7507 17.3345 27.331 16.8835 29.1136 16.8835C30.25 16.8835 31.3082 17.0717 32.2884 17.4482C33.2685 17.8175 34.1456 18.3501 34.9197 19.0462Z" fill="#1890FF"/>
</svg>
