<svg width="40" height="48" viewBox="0 0 40 48" fill="none" xmlns="http://www.w3.org/2000/svg">
<g opacity="0.3">
<path opacity="0.3" d="M27.9342 9.84959C26.8408 9.84853 25.7924 9.4137 25.0193 8.64056C24.2461 7.86742 23.8113 6.81912 23.8102 5.72574V0H5.38204C3.95463 0 2.5857 0.567023 1.57637 1.5763C0.567039 2.58558 0 3.95442 0 5.38176V37.8244C0.00211969 39.2504 0.570089 40.6172 1.57919 41.6247C2.58829 42.6323 3.95602 43.1982 5.38204 43.1982H27.5042C28.9303 43.1982 30.298 42.6323 31.3071 41.6247C32.3162 40.6172 32.8842 39.2504 32.8863 37.8244V9.84959H27.9342Z" fill="#FF3E4C"/>
</g>
<path d="M32.8863 9.84959H27.9342C26.8408 9.84853 25.7924 9.4137 25.0192 8.64056C24.2461 7.86742 23.8112 6.81912 23.8102 5.72574V0L32.8863 9.84959Z" fill="#FF3E4C"/>
<path d="M26.1202 30.1668H5.47205C5.27314 30.1668 5.08237 30.0877 4.94171 29.9471C4.80106 29.8064 4.72205 29.6157 4.72205 29.4168C4.72258 29.2182 4.80183 29.028 4.94242 28.8878C5.08302 28.7475 5.27348 28.6688 5.47205 28.6688H26.1202C26.3186 28.6688 26.5089 28.7476 26.6491 28.8879C26.7894 29.0281 26.8682 29.2184 26.8682 29.4168C26.8685 29.5152 26.8493 29.6127 26.8119 29.7036C26.7744 29.7946 26.7193 29.8773 26.6499 29.9469C26.5804 30.0166 26.4978 30.0719 26.4069 30.1096C26.3161 30.1473 26.2186 30.1668 26.1202 30.1668Z" fill="#FF3E4C"/>
<path d="M26.1202 21.7191H5.47205C5.27348 21.7191 5.08302 21.6404 4.94242 21.5001C4.80183 21.3599 4.72258 21.1697 4.72205 20.9712C4.72205 20.7723 4.80106 20.5815 4.94171 20.4408C5.08237 20.3002 5.27314 20.2212 5.47205 20.2212H26.1202C26.2186 20.2212 26.3161 20.2406 26.4069 20.2783C26.4978 20.316 26.5804 20.3713 26.6499 20.441C26.7193 20.5106 26.7744 20.5933 26.8119 20.6843C26.8493 20.7753 26.8685 20.8728 26.8682 20.9712C26.8682 21.1695 26.7894 21.3598 26.6491 21.5C26.5089 21.6403 26.3186 21.7191 26.1202 21.7191Z" fill="#FF3E4C"/>
<path d="M26.1202 25.9429H5.47205C5.27314 25.9429 5.08237 25.8639 4.94171 25.7232C4.80106 25.5826 4.72205 25.3918 4.72205 25.1929C4.72258 24.9944 4.80183 24.8041 4.94242 24.6639C5.08302 24.5237 5.27348 24.4449 5.47205 24.4449H26.1202C26.3186 24.4449 26.5089 24.5238 26.6491 24.664C26.7894 24.8043 26.8682 24.9945 26.8682 25.1929C26.8685 25.2913 26.8493 25.3888 26.8119 25.4798C26.7744 25.5707 26.7193 25.6534 26.6499 25.7231C26.5804 25.7928 26.4978 25.848 26.4069 25.8858C26.3161 25.9235 26.2186 25.9429 26.1202 25.9429Z" fill="#FF3E4C"/>
<path d="M17.9762 17.4952H5.47205C5.27348 17.4953 5.08302 17.4165 4.94242 17.2763C4.80183 17.1361 4.72258 16.9458 4.72205 16.7473C4.72205 16.5484 4.80106 16.3576 4.94171 16.217C5.08237 16.0763 5.27314 15.9973 5.47205 15.9973H17.9762C18.1747 15.9978 18.365 16.0771 18.5052 16.2177C18.6454 16.3583 18.7242 16.5487 18.7242 16.7473C18.7236 16.9455 18.6447 17.1354 18.5045 17.2756C18.3643 17.4157 18.1744 17.4947 17.9762 17.4952Z" fill="#FF3E4C"/>
<path d="M17.9762 13.2715H5.47205C5.27348 13.2715 5.08302 13.1927 4.94242 13.0525C4.80183 12.9123 4.72258 12.7221 4.72205 12.5235C4.72205 12.3246 4.80106 12.1338 4.94171 11.9932C5.08237 11.8525 5.27314 11.7736 5.47205 11.7736H17.9762C18.1747 11.7741 18.365 11.8533 18.5052 11.9939C18.6454 12.1345 18.7242 12.325 18.7242 12.5235C18.7236 12.7217 18.6447 12.9117 18.5045 13.0518C18.3643 13.192 18.1744 13.271 17.9762 13.2715Z" fill="#FF3E4C"/>
<path d="M36.7884 34.1206H11.7801C10.0062 34.1206 8.56812 35.5586 8.56812 37.3325V44.7882C8.56812 46.562 10.0062 48 11.7801 48H36.7884C38.5623 48 40.0004 46.562 40.0004 44.7882V37.3325C40.0004 35.5586 38.5623 34.1206 36.7884 34.1206Z" fill="#FF3E4C"/>
<path d="M16.7721 42.6742V44.1281H15.2681V42.6742H16.7721Z" fill="white"/>
<path d="M18.9842 42.0182V44.1281H17.5302V38.1144H19.8862C20.6002 38.1144 21.1462 38.2924 21.5202 38.6463C21.7094 38.8323 21.8572 39.0562 21.9537 39.3033C22.0502 39.5505 22.0933 39.8153 22.0802 40.0803C22.0875 40.4299 22.0012 40.7751 21.8302 41.0802C21.6556 41.3785 21.3968 41.6186 21.0862 41.7702C20.7116 41.9473 20.3003 42.0329 19.8862 42.0202L18.9842 42.0182ZM20.6002 40.0803C20.6002 39.547 20.3082 39.2803 19.7242 39.2803H18.9842V40.8462H19.7242C20.3082 40.8516 20.6002 40.5962 20.6002 40.0803Z" fill="white"/>
<path d="M27.8262 42.6782C27.5758 43.1329 27.1975 43.5042 26.7382 43.7462C26.2214 44.0107 25.6466 44.142 25.0662 44.1281H22.7961V38.1144H25.0662C25.6471 38.0998 26.2226 38.2282 26.7422 38.4884C27.2002 38.7251 27.5776 39.0926 27.8262 39.5443C28.0864 40.0238 28.2174 40.5628 28.2062 41.1083C28.217 41.6556 28.0861 42.1964 27.8262 42.6782ZM26.2622 42.3762C26.4248 42.2093 26.5507 42.0104 26.632 41.792C26.7133 41.5737 26.7481 41.3408 26.7342 41.1083C26.7482 40.876 26.7134 40.6434 26.6321 40.4253C26.5508 40.2073 26.4248 40.0087 26.2622 39.8423C25.8984 39.5231 25.4232 39.3607 24.9402 39.3903H24.2502V42.8262H24.9402C25.4228 42.8555 25.8977 42.6939 26.2622 42.3762Z" fill="white"/>
<path d="M32.9522 38.1144V39.2723H30.4862V40.5903H32.3902V41.6962H30.4862V44.1281H29.0302V38.1144H32.9522Z" fill="white"/>
<path d="M25.7542 11.7736H22.2182C21.6018 11.7736 21.1022 12.2732 21.1022 12.8895V16.4254C21.1022 17.0417 21.6018 17.5413 22.2182 17.5413H25.7542C26.3706 17.5413 26.8702 17.0417 26.8702 16.4254V12.8895C26.8702 12.2732 26.3706 11.7736 25.7542 11.7736Z" fill="#FF3E4C"/>
</svg>
