<svg width="24" height="24" viewBox="0 0 24 24" fill="none" xmlns="http://www.w3.org/2000/svg">
<path d="M22.4857 4.00714C22.4857 3.74003 22.3796 3.48386 22.1907 3.29499C22.0019 3.10611 21.7457 3 21.4786 3H2.00714C1.74003 3 1.48386 3.10611 1.29499 3.29499C1.10611 3.48386 1 3.74003 1 4.00714C1 4.27425 1.10611 4.53042 1.29499 4.7193C1.48386 4.90818 1.74003 5.01429 2.00714 5.01429H21.4786C21.7457 5.01429 22.0019 4.90818 22.1907 4.7193C22.3796 4.53042 22.4857 4.27425 22.4857 4.00714ZM22.4857 8.03571C22.4857 7.7686 22.3796 7.51243 22.1907 7.32356C22.0019 7.13468 21.7457 7.02857 21.4786 7.02857H2.00714C1.74003 7.02857 1.48386 7.13468 1.29499 7.32356C1.10611 7.51243 1 7.7686 1 8.03571C1 8.30283 1.10611 8.559 1.29499 8.74787C1.48386 8.93675 1.74003 9.04286 2.00714 9.04286H14.7052C15.6715 8.59912 16.7224 8.37006 17.7857 8.37143C18.849 8.37006 19.9 8.59912 20.8662 9.04286H21.4786C21.7457 9.04286 22.0019 8.93675 22.1907 8.74787C22.3796 8.559 22.4857 8.30283 22.4857 8.03571ZM10.5209 17.1H2.00714C1.74003 17.1 1.48386 16.9939 1.29499 16.805C1.10611 16.6161 1 16.36 1 16.0929C1 15.8257 1.10611 15.5696 1.29499 15.3807C1.48386 15.1918 1.74003 15.0857 2.00714 15.0857H10.4295C10.3694 15.7582 10.3992 16.4358 10.5209 17.1ZM10.9036 13.0714H2.00714C1.74003 13.0714 1.48386 12.9653 1.29499 12.7764C1.10611 12.5876 1 12.3314 1 12.0643C1 11.7972 1.10611 11.541 1.29499 11.3521C1.48386 11.1633 1.74003 11.0571 2.00714 11.0571H12.088C11.5887 11.6614 11.1889 12.3414 10.9036 13.0714ZM23.8286 15.7571C23.8286 17.3598 23.1919 18.8968 22.0587 20.0301C20.9254 21.1633 19.3884 21.8 17.7857 21.8C16.1831 21.8 14.646 21.1633 13.5128 20.0301C12.3795 18.8968 11.7429 17.3598 11.7429 15.7571C11.7429 14.1545 12.3795 12.6175 13.5128 11.4842C14.646 10.3509 16.1831 9.71429 17.7857 9.71429C19.3884 9.71429 20.9254 10.3509 22.0587 11.4842C23.1919 12.6175 23.8286 14.1545 23.8286 15.7571ZM17.7857 16.7065L19.3246 18.2468C19.3871 18.3092 19.4612 18.3587 19.5427 18.3925C19.6243 18.4263 19.7117 18.4437 19.8 18.4437C19.8883 18.4437 19.9757 18.4263 20.0573 18.3925C20.1388 18.3587 20.2129 18.3092 20.2754 18.2468C20.3378 18.1844 20.3873 18.1103 20.4211 18.0287C20.4549 17.9471 20.4723 17.8597 20.4723 17.7714C20.4723 17.6831 20.4549 17.5957 20.4211 17.5142C20.3873 17.4326 20.3378 17.3585 20.2754 17.2961L18.7351 15.7571L20.2754 14.2182C20.4015 14.0922 20.4723 13.9212 20.4723 13.7429C20.4723 13.5646 20.4015 13.3936 20.2754 13.2675C20.1493 13.1414 19.9783 13.0706 19.8 13.0706C19.6217 13.0706 19.4507 13.1414 19.3246 13.2675L17.7857 14.8077L16.2468 13.2675C16.1207 13.1414 15.9497 13.0706 15.7714 13.0706C15.5931 13.0706 15.4221 13.1414 15.2961 13.2675C15.17 13.3936 15.0992 13.5646 15.0992 13.7429C15.0992 13.9212 15.17 14.0922 15.2961 14.2182L16.8363 15.7571L15.2961 17.2961C15.2336 17.3585 15.1841 17.4326 15.1503 17.5142C15.1165 17.5957 15.0992 17.6831 15.0992 17.7714C15.0992 17.8597 15.1165 17.9471 15.1503 18.0287C15.1841 18.1103 15.2336 18.1844 15.2961 18.2468C15.3585 18.3092 15.4326 18.3587 15.5142 18.3925C15.5957 18.4263 15.6831 18.4437 15.7714 18.4437C15.8597 18.4437 15.9471 18.4263 16.0287 18.3925C16.1103 18.3587 16.1844 18.3092 16.2468 18.2468L17.7857 16.7065Z" fill="#FF604F"/>
</svg>
