<svg width="40" height="48" viewBox="0 0 40 48" fill="none" xmlns="http://www.w3.org/2000/svg">
<g opacity="0.3">
<path opacity="0.3" d="M27.9343 9.84959C26.8408 9.84853 25.7925 9.4137 25.0193 8.64056C24.2461 7.86742 23.8113 6.81912 23.8102 5.72574V0H5.38208C3.95467 0 2.58571 0.567023 1.57638 1.5763C0.567051 2.58558 0 3.95442 0 5.38176V37.8244C0 39.2517 0.567051 40.6206 1.57638 41.6299C2.58571 42.6392 3.95467 43.2062 5.38208 43.2062H27.5022C28.9296 43.2062 30.2986 42.6392 31.3079 41.6299C32.3173 40.6206 32.8843 39.2517 32.8843 37.8244V9.84959H27.9343Z" fill="#00C650"/>
</g>
<path d="M32.8843 9.84959H27.9342C26.8408 9.84853 25.7925 9.4137 25.0193 8.64056C24.2461 7.86742 23.8112 6.81912 23.8102 5.72574V0L32.8843 9.84959Z" fill="#00C650"/>
<path d="M36.7884 34.1206H11.7802C10.0062 34.1206 8.56812 35.5586 8.56812 37.3325V44.7882C8.56812 46.562 10.0062 48 11.7802 48H36.7884C38.5623 48 40.0004 46.562 40.0004 44.7882V37.3325C40.0004 35.5586 38.5623 34.1206 36.7884 34.1206Z" fill="#00C650"/>
<path d="M17.4862 42.6742V44.1281H15.9802V42.6742H17.4862Z" fill="white"/>
<path d="M21.8922 44.1281L20.6262 42.2562L19.5362 44.1281H17.8702L19.7922 41.0322L17.8102 38.1144H19.5362L20.7702 39.9263L21.8342 38.1144H23.4922L21.5962 41.1422L23.6202 44.1281H21.8922Z" fill="white"/>
<path d="M28.2602 43.3122C28.0877 43.5883 27.84 43.8096 27.5462 43.9501C27.1887 44.1176 26.7969 44.1991 26.4022 44.1881C25.8068 44.213 25.2201 44.0393 24.7342 43.6941C24.5193 43.5329 24.3435 43.3252 24.2199 43.0867C24.0963 42.8481 24.028 42.5848 24.0202 42.3162H25.5682C25.5793 42.5188 25.6656 42.7099 25.8102 42.8522C25.9542 42.9864 26.1454 43.0583 26.3422 43.0522C26.4224 43.0569 26.5027 43.0457 26.5786 43.0193C26.6544 42.9928 26.7244 42.9517 26.7843 42.8982C26.8376 42.8464 26.8796 42.7841 26.9075 42.7153C26.9353 42.6464 26.9485 42.5725 26.9462 42.4982C26.9482 42.4277 26.936 42.3575 26.9102 42.2919C26.8844 42.2263 26.8456 42.1665 26.7962 42.1162C26.6904 42.0091 26.5647 41.9235 26.4262 41.8642C26.2809 41.8002 26.0769 41.7222 25.8142 41.6302C25.4955 41.5251 25.1841 41.3989 24.8822 41.2522C24.6341 41.1244 24.4212 40.9376 24.2622 40.7083C24.0777 40.4306 23.9866 40.1013 24.0022 39.7683C23.995 39.4383 24.09 39.1142 24.2742 38.8403C24.4634 38.5727 24.725 38.3646 25.0282 38.2404C25.3778 38.0982 25.753 38.0301 26.1302 38.0404C26.7029 38.0088 27.2687 38.1778 27.7303 38.5184C27.9267 38.6782 28.0876 38.8772 28.2026 39.1028C28.3177 39.3283 28.3843 39.5755 28.3982 39.8283H26.8242C26.8067 39.6513 26.7307 39.4853 26.6082 39.3563C26.5457 39.2964 26.4716 39.2499 26.3904 39.2196C26.3092 39.1893 26.2228 39.176 26.1363 39.1803C25.9863 39.1735 25.839 39.2219 25.7222 39.3163C25.6684 39.3674 25.6265 39.4297 25.5995 39.4988C25.5725 39.568 25.5612 39.6423 25.5662 39.7163C25.5631 39.8508 25.6135 39.9809 25.7062 40.0783C25.8057 40.1822 25.9256 40.2646 26.0582 40.3203C26.2002 40.3823 26.4042 40.4623 26.6702 40.5583C26.9948 40.664 27.311 40.7937 27.6162 40.9462C27.8656 41.0808 28.0805 41.271 28.2442 41.5022C28.4309 41.7843 28.5233 42.1183 28.5082 42.4562C28.5056 42.7588 28.4198 43.055 28.2602 43.3122Z" fill="white"/>
<path d="M30.7662 43.0142H32.7142V44.1281H29.3142V38.1144H30.7702L30.7662 43.0142Z" fill="white"/>
<path d="M23.7782 30.1667H9.11408C7.84407 30.1667 6.81006 28.9027 6.81006 27.3468V16.7093C6.81006 15.1553 7.84407 13.8914 9.11408 13.8914H23.7842C25.0522 13.8914 26.0863 15.1553 26.0863 16.7093V27.3468C26.0803 28.9027 25.0462 30.1667 23.7782 30.1667ZM9.11408 15.3313C8.49208 15.3313 7.9881 15.9493 7.9881 16.7093V27.3468C7.9881 28.1068 8.49208 28.7247 9.11408 28.7247H23.7842C24.4042 28.7247 24.9082 28.1068 24.9082 27.3468V16.7093C24.9082 15.9493 24.4042 15.3313 23.7842 15.3313H9.11408Z" fill="#00C650"/>
<path d="M25.4922 23.761H7.39404V25.2029H25.4922V23.761Z" fill="#00C650"/>
<path d="M25.4922 18.8173H7.39404V20.2592H25.4922V18.8173Z" fill="#00C650"/>
<path d="M20.8562 14.6115H19.4142V29.4448H20.8562V14.6115Z" fill="#00C650"/>
<path d="M13.4701 14.6115H12.0281V29.4448H13.4701V14.6115Z" fill="#00C650"/>
</svg>
